<?xml version="1.0" encoding="utf-8"?>
<!-- Generator: Adobe Illustrator 22.1.0, SVG Export Plug-In . SVG Version: 6.00 Build 0)  -->
<svg version="1.1" id="Calque_1" xmlns="http://www.w3.org/2000/svg" xmlns:xlink="http://www.w3.org/1999/xlink" x="0px" y="0px"
	 viewBox="0 0 100 125" style="enable-background:new 0 0 100 125;" xml:space="preserve">
<title>People</title>
<circle cx="41" cy="31.7" r="15.5"/>
<path d="M41,49.8c-15,0-27.2,12.7-27.2,28.3c0,1.9,0.2,3.8,0.5,5.7h53.3c0.4-1.9,0.5-3.8,0.5-5.7C68.2,62.5,56,49.8,41,49.8z"/>
<path d="M57.8,38.8c5.4,4,13.1,2.8,17-2.7c4-5.4,2.8-13.1-2.7-17c-5.1-3.7-12.3-2.9-16.4,2C59.4,26.2,60.2,32.9,57.8,38.8L57.8,38.8
	z"/>
<path d="M64.9,43.3c-5.2,0-10.3,2-14.1,5.6c0.6,0.2,1.2,0.5,1.8,0.7c3.6,1.6,6.8,3.9,9.5,6.7c3.7,3.8,6.3,8.5,7.7,13.7h16
	c0.3-1.5,0.4-3,0.4-4.5C86.2,53.3,76.7,43.3,64.9,43.3z"/>
</svg>
