<?xml version="1.0" encoding="utf-8"?>
<!-- Generator: Adobe Illustrator 22.1.0, SVG Export Plug-In . SVG Version: 6.00 Build 0)  -->
<svg version="1.1" id="Calque_1" xmlns="http://www.w3.org/2000/svg" xmlns:xlink="http://www.w3.org/1999/xlink" x="0px" y="0px"
	 viewBox="0 0 100 125" style="enable-background:new 0 0 100 125;" xml:space="preserve">
<path d="M91.9,91.9c-3.5,3.5-9.2,3.5-12.7,0L62.7,75.4C56.9,79,50.1,81,42.7,81C21.6,81,4.5,63.9,4.5,42.7S21.6,4.5,42.7,4.5
	S81,21.6,81,42.7c0,7.3-2.1,14.1-5.6,20l16.5,16.5C95.4,82.7,95.4,88.4,91.9,91.9z M42.7,15.7c-14.9,0-27,12.1-27,27s12.1,27,27,27
	s27-12.1,27-27S57.7,15.7,42.7,15.7z"/>
</svg>
