<?xml version="1.0" encoding="utf-8"?>
<!-- Generator: Adobe Illustrator 22.1.0, SVG Export Plug-In . SVG Version: 6.00 Build 0)  -->
<svg version="1.1" id="Calque_1" xmlns="http://www.w3.org/2000/svg" xmlns:xlink="http://www.w3.org/1999/xlink" x="0px" y="0px"
	 viewBox="0 0 97 121.2" style="enable-background:new 0 0 97 121.2;" xml:space="preserve">
<g>
	<path d="M48.5,8c-17,0-30.8,13.8-30.8,30.8c0,16.7,29.2,48.7,30.4,50.1c0.1,0.1,0.2,0.2,0.4,0.2c0.1,0,0.3-0.1,0.4-0.2
		c1.2-1.4,30.4-33.3,30.4-50.1C79.3,21.8,65.5,8,48.5,8z M48.5,54.4c-8.6,0-15.6-7-15.6-15.6s7-15.6,15.6-15.6s15.6,7,15.6,15.6
		S57.1,54.4,48.5,54.4z"/>
	<path d="M48.5,29.1c-5.3,0-9.7,4.3-9.7,9.7c0,5.3,4.3,9.7,9.7,9.7c5.3,0,9.7-4.3,9.7-9.7C58.2,33.4,53.8,29.1,48.5,29.1z"/>
</g>
</svg>
